<?xml version="1.0" encoding="UTF-8" standalone="no"?>
<!-- Generator: Adobe Illustrator 15.1.0, SVG Export Plug-In . SVG Version: 6.00 Build 0)  -->

<svg
   xmlns:dc="http://purl.org/dc/elements/1.1/"
   xmlns:cc="http://creativecommons.org/ns#"
   xmlns:rdf="http://www.w3.org/1999/02/22-rdf-syntax-ns#"
   xmlns:svg="http://www.w3.org/2000/svg"
   xmlns="http://www.w3.org/2000/svg"
   xmlns:sodipodi="http://sodipodi.sourceforge.net/DTD/sodipodi-0.dtd"
   xmlns:inkscape="http://www.inkscape.org/namespaces/inkscape"
   version="1.1"
   id="Calque_1"
   x="0px"
   y="0px"
   width="354.823px"
   height="171.606px"
   viewBox="0 0 354.823 171.606"
   enable-background="new 0 0 354.823 171.606"
   xml:space="preserve"
   inkscape:version="0.48.2 r9819"
   sodipodi:docname="Logo_Ligne_1.svg"><metadata
   id="metadata11"><rdf:RDF><cc:Work
       rdf:about=""><dc:format>image/svg+xml</dc:format><dc:type
         rdf:resource="http://purl.org/dc/dcmitype/StillImage" /></cc:Work></rdf:RDF></metadata><defs
   id="defs9" /><sodipodi:namedview
   pagecolor="#ffffff"
   bordercolor="#666666"
   borderopacity="1"
   objecttolerance="10"
   gridtolerance="10"
   guidetolerance="10"
   inkscape:pageopacity="0"
   inkscape:pageshadow="2"
   inkscape:window-width="785"
   inkscape:window-height="480"
   id="namedview7"
   showgrid="false"
   inkscape:zoom="1.1836888"
   inkscape:cx="125.02891"
   inkscape:cy="85.803001"
   inkscape:window-x="0"
   inkscape:window-y="0"
   inkscape:window-maximized="0"
   inkscape:current-layer="Calque_1" />

<g
   id="g3758"><path
     d="M175.29,86.225c0-46.883-40.375-84.894-86.609-84.894c-47.974,0-87.035,38.011-87.035,84.894  c0,46.452,39.061,84.052,87.035,84.052C136.651,170.276,175.29,132.887,175.29,86.225 M163.354,86.225  c0,39.7-33.643,72.848-74.672,72.848c-41.235,0-75.099-32.723-75.099-72.848c0-40.328,33.864-73.706,75.099-73.706  C129.704,12.519,163.354,46.1,163.354,86.225z M131.657,123.597V49.903c0-4.221-2.384-8.656-9.549-8.656  c-5.417,0-7.599,2.322-9.981,6.973L88.681,95.729h-0.215L64.802,48.219c-2.382-4.651-4.557-6.973-9.982-6.973  c-7.164,0-9.552,4.435-9.552,8.656v73.694c0,4.03,3.258,6.341,7.158,6.341c3.474,0,7.378-2.311,7.378-6.341v-54.9h0.22  l21.488,42.656c1.521,2.96,3.477,4.657,6.953,4.657c3.466,0,5.423-1.697,6.943-4.657l21.485-42.656h0.221v54.9  c0,4.03,3.902,6.341,7.374,6.341C128.404,129.938,131.657,127.627,131.657,123.597z"
     fill="#164B9C"
     id="path7473" /><path
     id="path7477"
     d="m 178.29533,85.806 c 0,-47.007427 39.15156,-85.0688976 87.455,-85.0688976 48.2803,0 87.42582,38.0614706 87.42582,85.0688976 0,46.96724 -39.14552,85.06229 -87.42582,85.06229 -48.30399,0 -87.455,-38.09505 -87.455,-85.06229"
     inkscape:connector-curvature="0"
     style="fill:#f2c931;fill-opacity:1" /><path
     id="path7479"
     d="M 279.21909,130.65801 V 40.488775 h -16.14721 c -4.18642,3.187158 -14.16907,9.193155 -24.9335,14.165762 l -5.64759,2.58265 6.3044,13.787531 4.87901,-2.446113 c 3.39086,-1.634045 12.70789,-6.363306 15.86808,-8.792352 V 130.6547 h 19.67681"
     inkscape:connector-curvature="0"
     style="fill:#231f20" /></g>
</svg>