<?xml version="1.0" encoding="UTF-8" standalone="no"?>
<!-- Generator: Adobe Illustrator 12.0.1, SVG Export Plug-In  -->

<svg
   xmlns:dc="http://purl.org/dc/elements/1.1/"
   xmlns:cc="http://creativecommons.org/ns#"
   xmlns:rdf="http://www.w3.org/1999/02/22-rdf-syntax-ns#"
   xmlns:svg="http://www.w3.org/2000/svg"
   xmlns="http://www.w3.org/2000/svg"
   xmlns:sodipodi="http://sodipodi.sourceforge.net/DTD/sodipodi-0.dtd"
   xmlns:inkscape="http://www.inkscape.org/namespaces/inkscape"
   version="1.1"
   width="55"
   height="55"
   viewBox="-0.968 -0.697 55 55"
   enable-background="new -0.968 -0.697 55 55"
   xml:space="preserve"
   id="svg2"
   inkscape:version="0.48.2 r9819"
   sodipodi:docname="Paris_m_11_jms.svg"><metadata
   id="metadata12"><rdf:RDF><cc:Work
       rdf:about=""><dc:format>image/svg+xml</dc:format><dc:type
         rdf:resource="http://purl.org/dc/dcmitype/StillImage" /></cc:Work></rdf:RDF></metadata><sodipodi:namedview
   pagecolor="#ffffff"
   bordercolor="#666666"
   borderopacity="1"
   objecttolerance="10"
   gridtolerance="10"
   guidetolerance="10"
   inkscape:pageopacity="0"
   inkscape:pageshadow="2"
   inkscape:window-width="1420"
   inkscape:window-height="675"
   id="namedview10"
   showgrid="false"
   inkscape:zoom="4.2909091"
   inkscape:cx="27.5"
   inkscape:cy="27.5"
   inkscape:window-x="650"
   inkscape:window-y="253"
   inkscape:window-maximized="0"
   inkscape:current-layer="svg2" />
<defs
   id="defs4">
</defs>
<path
   fill="#8D663A"
   d="M0,26.707C0,11.959,11.961,0,26.695,0c14.758,0,26.719,11.959,26.719,26.707S41.453,53.408,26.695,53.408  C11.961,53.408,0,41.455,0,26.707"
   id="path6"
   style="fill:#8e6538;fill-opacity:1" />
<path
   fill="#FFFFFF"
   d="M22.969,40.812V12.508h-4.934c-1.281,1.004-4.328,2.885-7.617,4.447L8.695,17.76l1.918,4.332l1.484-0.764  c1.043-0.525,3.895-2.004,4.852-2.764v22.248H22.969 M40.574,40.812V12.508h-4.918c-1.281,1.004-4.32,2.885-7.602,4.447  l-1.719,0.805l1.918,4.332l1.48-0.764c1.039-0.525,3.879-2.004,4.84-2.764v22.248H40.574z"
   id="path8" />
</svg>