<?xml version="1.0" encoding="UTF-8" standalone="no"?>
<!-- Generator: Adobe Illustrator 12.0.1, SVG Export Plug-In  -->

<svg
   xmlns:dc="http://purl.org/dc/elements/1.1/"
   xmlns:cc="http://creativecommons.org/ns#"
   xmlns:rdf="http://www.w3.org/1999/02/22-rdf-syntax-ns#"
   xmlns:svg="http://www.w3.org/2000/svg"
   xmlns="http://www.w3.org/2000/svg"
   xmlns:sodipodi="http://sodipodi.sourceforge.net/DTD/sodipodi-0.dtd"
   xmlns:inkscape="http://www.inkscape.org/namespaces/inkscape"
   version="1.1"
   width="55"
   height="55"
   viewBox="-0.966 -0.696 55 55"
   enable-background="new -0.966 -0.696 55 55"
   xml:space="preserve"
   id="svg2"
   inkscape:version="0.48.2 r9819"
   sodipodi:docname="Paris_m_2_jms.svg"><metadata
   id="metadata12"><rdf:RDF><cc:Work
       rdf:about=""><dc:format>image/svg+xml</dc:format><dc:type
         rdf:resource="http://purl.org/dc/dcmitype/StillImage" /></cc:Work></rdf:RDF></metadata><sodipodi:namedview
   pagecolor="#ffffff"
   bordercolor="#666666"
   borderopacity="1"
   objecttolerance="10"
   gridtolerance="10"
   guidetolerance="10"
   inkscape:pageopacity="0"
   inkscape:pageshadow="2"
   inkscape:window-width="785"
   inkscape:window-height="480"
   id="namedview10"
   showgrid="false"
   inkscape:zoom="4.2909091"
   inkscape:cx="27.5"
   inkscape:cy="27.5"
   inkscape:window-x="0"
   inkscape:window-y="0"
   inkscape:window-maximized="0"
   inkscape:current-layer="svg2" />
<defs
   id="defs4" />

<g
   id="g3757"><path
     style="fill:#216eb4;fill-opacity:1"
     id="path6"
     d="M0,26.711C0,11.953,11.953,0,26.707,0s26.711,11.953,26.711,26.711c0,14.742-11.957,26.699-26.711,26.699  S0,41.453,0,26.711"
     fill="#0C6EB7" /><path
     id="path8"
     d="M36.133,39.574v-4.738h-11.68c0.367-1.641,3.211-4.008,4.652-5.328c3.41-3.098,6.496-5.297,6.496-10.148  c0-5.77-4.684-8.578-9.656-8.578c-3.812,0-6.336,1.121-9.066,3.492l2.977,3.93c0.676-0.766,2.402-2.57,4.883-2.57  c3.086,0,4.688,1.965,4.688,4.406c0,2.734-2.031,4.691-3.918,6.336c-3.777,3.289-7.023,6.172-7.742,9.469v3.73H36.133"
     fill="#FFFFFF" /></g>
</svg>