<?xml version="1.0" encoding="UTF-8" standalone="no"?>
<!-- Generator: Adobe Illustrator 12.0.1, SVG Export Plug-In  -->

<svg
   xmlns:dc="http://purl.org/dc/elements/1.1/"
   xmlns:cc="http://creativecommons.org/ns#"
   xmlns:rdf="http://www.w3.org/1999/02/22-rdf-syntax-ns#"
   xmlns:svg="http://www.w3.org/2000/svg"
   xmlns="http://www.w3.org/2000/svg"
   xmlns:sodipodi="http://sodipodi.sourceforge.net/DTD/sodipodi-0.dtd"
   xmlns:inkscape="http://www.inkscape.org/namespaces/inkscape"
   version="1.1"
   width="55"
   height="55"
   viewBox="-0.968 -0.699 55 55"
   enable-background="new -0.968 -0.699 55 55"
   xml:space="preserve"
   id="svg2"
   inkscape:version="0.48.2 r9819"
   sodipodi:docname="Paris_m_3_jms.svg"><metadata
   id="metadata12"><rdf:RDF><cc:Work
       rdf:about=""><dc:format>image/svg+xml</dc:format><dc:type
         rdf:resource="http://purl.org/dc/dcmitype/StillImage" /></cc:Work></rdf:RDF></metadata><sodipodi:namedview
   pagecolor="#ffffff"
   bordercolor="#666666"
   borderopacity="1"
   objecttolerance="10"
   gridtolerance="10"
   guidetolerance="10"
   inkscape:pageopacity="0"
   inkscape:pageshadow="2"
   inkscape:window-width="785"
   inkscape:window-height="480"
   id="namedview10"
   showgrid="false"
   inkscape:zoom="4.2909091"
   inkscape:cx="27.5"
   inkscape:cy="27.5"
   inkscape:window-x="0"
   inkscape:window-y="0"
   inkscape:window-maximized="0"
   inkscape:current-layer="svg2" />
<defs
   id="defs4" />

<g
   id="g3757"><path
     style="fill:#9a9940;fill-opacity:1"
     id="path6"
     d="M0,26.701C0,11.953,11.961,0,26.695,0c14.758,0,26.719,11.953,26.719,26.701  c0,14.752-11.961,26.703-26.719,26.703C11.961,53.404,0,41.453,0,26.701"
     fill="#9B993A" /><path
     id="path8"
     d="M36.613,32.357c0-3.961-2.359-6.297-5.48-6.896v-0.072c3-1.125,4.562-3.377,4.562-6.297  c0-3.771-3.281-7.139-9.082-7.139c-3.293,0-6.031,0.92-8.473,2.531l1.965,4.172c0.926-0.807,2.641-2.064,5.254-2.064  c2.977,0,4.336,1.58,4.336,3.385c0,2.164-1.719,3.531-4.496,3.531h-2.977v4.693h2.934c2.898,0,5.379,1.031,5.379,4.283  c0,2.404-2.039,4.164-5.336,4.164c-2.402,0-4.371-0.932-5.586-1.836l-2.152,4.359c2.285,1.289,4.488,2.133,8.129,2.133  C32.176,41.305,36.613,37.328,36.613,32.357"
     fill="#FFFFFF" /></g>
</svg>